<svg width="124" height="23" viewBox="0 0 124 23" fill="none" xmlns="http://www.w3.org/2000/svg">
  <path d="M0.6 1.3H2.45V5.03L2.2 5.52V6.86L2.45 7.34V9H0.6V1.3ZM1.83 6.15C1.93 5.53667 2.12 5.00667 2.4 4.56C2.68 4.11333 3.03333 3.76667 3.46 3.52C3.88667 3.26667 4.36667 3.14 4.9 3.14C5.46 3.14 5.95 3.26667 6.37 3.52C6.79667 3.77333 7.13 4.12667 7.37 4.58C7.61 5.02667 7.73 5.55 7.73 6.15C7.73 6.75 7.61 7.27667 7.37 7.73C7.13 8.17667 6.79667 8.52667 6.37 8.78C5.95 9.03333 5.46 9.16 4.9 9.16C4.36667 9.16 3.88667 9.03667 3.46 8.79C3.03333 8.53667 2.68 8.18667 2.4 7.74C2.12 7.28667 1.93 6.75667 1.83 6.15ZM5.85 6.15C5.85 5.84333 5.78667 5.57333 5.66 5.34C5.53333 5.1 5.35667 4.91333 5.13 4.78C4.91 4.64 4.65333 4.57 4.36 4.57C4.06667 4.57 3.78667 4.64 3.52 4.78C3.26 4.91333 3.03 5.1 2.83 5.34C2.63667 5.57333 2.48667 5.84333 2.38 6.15C2.48667 6.45667 2.63667 6.73 2.83 6.97C3.03 7.20333 3.26 7.39 3.52 7.53C3.78667 7.66333 4.06667 7.73 4.36 7.73C4.65333 7.73 4.91 7.66333 5.13 7.53C5.35667 7.39 5.53333 7.20333 5.66 6.97C5.78667 6.73 5.85 6.45667 5.85 6.15ZM11.9364 9.16C11.2564 9.16 10.6464 9.03333 10.1064 8.78C9.57307 8.52667 9.15307 8.17333 8.84641 7.72C8.53974 7.26667 8.38641 6.73667 8.38641 6.13C8.38641 5.53667 8.53307 5.01667 8.82641 4.57C9.11974 4.12333 9.52307 3.77333 10.0364 3.52C10.5564 3.26667 11.1431 3.14 11.7964 3.14C12.4631 3.14 13.0364 3.28667 13.5164 3.58C13.9964 3.87333 14.3664 4.28667 14.6264 4.82C14.8864 5.35333 15.0164 5.98 15.0164 6.7H9.87641V5.53H13.9964L13.3264 5.95C13.3064 5.63667 13.2297 5.37333 13.0964 5.16C12.9697 4.94 12.7997 4.77333 12.5864 4.66C12.3731 4.54 12.1197 4.48 11.8264 4.48C11.5064 4.48 11.2297 4.54333 10.9964 4.67C10.7631 4.79667 10.5797 4.97333 10.4464 5.2C10.3197 5.42667 10.2564 5.69 10.2564 5.99C10.2564 6.37 10.3397 6.69333 10.5064 6.96C10.6797 7.22667 10.9264 7.43 11.2464 7.57C11.5731 7.71 11.9697 7.78 12.4364 7.78C12.8631 7.78 13.2897 7.72333 13.7164 7.61C14.1431 7.49 14.5264 7.32333 14.8664 7.11V8.32C14.4797 8.58667 14.0364 8.79333 13.5364 8.94C13.0431 9.08667 12.5097 9.16 11.9364 9.16ZM22.3618 7.17C22.3618 7.59667 22.2351 7.96 21.9818 8.26C21.7351 8.55333 21.3718 8.77667 20.8918 8.93C20.4118 9.08333 19.8285 9.16 19.1418 9.16C18.4418 9.16 17.8285 9.07333 17.3018 8.9C16.7751 8.72667 16.3651 8.48333 16.0718 8.17C15.7785 7.85667 15.6218 7.49333 15.6018 7.08H17.4918C17.5318 7.24667 17.6251 7.39333 17.7718 7.52C17.9251 7.64667 18.1218 7.74333 18.3618 7.81C18.6018 7.87 18.8851 7.9 19.2118 7.9C19.6518 7.9 19.9851 7.85333 20.2118 7.76C20.4385 7.66667 20.5518 7.52667 20.5518 7.34C20.5518 7.2 20.4685 7.09333 20.3018 7.02C20.1418 6.94667 19.8518 6.89333 19.4318 6.86L18.3918 6.78C17.7385 6.73333 17.2185 6.63 16.8318 6.47C16.4451 6.31 16.1685 6.10667 16.0018 5.86C15.8418 5.61333 15.7618 5.33667 15.7618 5.03C15.7618 4.61 15.8918 4.26 16.1518 3.98C16.4185 3.7 16.7851 3.49 17.2518 3.35C17.7185 3.21 18.2651 3.14 18.8918 3.14C19.5185 3.14 20.0751 3.22333 20.5618 3.39C21.0551 3.55667 21.4485 3.78667 21.7418 4.08C22.0418 4.37333 22.2118 4.71667 22.2518 5.11H20.3618C20.3351 4.97667 20.2618 4.85333 20.1418 4.74C20.0285 4.62667 19.8618 4.53667 19.6418 4.47C19.4285 4.39667 19.1485 4.36 18.8018 4.36C18.4085 4.36 18.1085 4.40333 17.9018 4.49C17.6951 4.57667 17.5918 4.70333 17.5918 4.87C17.5918 4.99667 17.6551 5.09667 17.7818 5.17C17.9085 5.24333 18.1485 5.29667 18.5018 5.33L19.8518 5.43C20.4918 5.48333 20.9918 5.58667 21.3518 5.74C21.7185 5.88667 21.9785 6.08 22.1318 6.32C22.2851 6.56 22.3618 6.84333 22.3618 7.17ZM23.2855 3.3H25.1355V5.02L25.0655 5.26V6.74L25.1355 7.18V10.65H23.2855V3.3ZM24.5255 6.15C24.6255 5.53667 24.8155 5.00667 25.0955 4.56C25.3755 4.11333 25.7289 3.76667 26.1555 3.52C26.5889 3.26667 27.0689 3.14 27.5955 3.14C28.1555 3.14 28.6455 3.26667 29.0655 3.52C29.4922 3.77333 29.8255 4.12667 30.0655 4.58C30.3055 5.02667 30.4255 5.55 30.4255 6.15C30.4255 6.75 30.3055 7.27667 30.0655 7.73C29.8255 8.17667 29.4922 8.52667 29.0655 8.78C28.6455 9.03333 28.1555 9.16 27.5955 9.16C27.0622 9.16 26.5822 9.03667 26.1555 8.79C25.7355 8.53667 25.3855 8.18667 25.1055 7.74C24.8255 7.28667 24.6322 6.75667 24.5255 6.15ZM28.5455 6.15C28.5455 5.84333 28.4822 5.57333 28.3555 5.34C28.2289 5.1 28.0522 4.91333 27.8255 4.78C27.6055 4.64 27.3522 4.57 27.0655 4.57C26.7722 4.57 26.4922 4.64 26.2255 4.78C25.9589 4.91333 25.7255 5.1 25.5255 5.34C25.3322 5.57333 25.1822 5.84333 25.0755 6.15C25.1822 6.45667 25.3322 6.73 25.5255 6.97C25.7255 7.20333 25.9589 7.39 26.2255 7.53C26.4922 7.66333 26.7722 7.73 27.0655 7.73C27.3522 7.73 27.6055 7.66333 27.8255 7.53C28.0522 7.39 28.2289 7.20333 28.3555 6.97C28.4822 6.73 28.5455 6.45667 28.5455 6.15ZM34.6817 9.16C33.9617 9.16 33.3317 9.03333 32.7917 8.78C32.2517 8.52667 31.8317 8.17333 31.5317 7.72C31.2317 7.26667 31.0817 6.74333 31.0817 6.15C31.0817 5.55 31.2317 5.02667 31.5317 4.58C31.8317 4.12667 32.2517 3.77333 32.7917 3.52C33.3384 3.26667 33.9684 3.14 34.6817 3.14C35.4017 3.14 36.0317 3.26667 36.5717 3.52C37.1184 3.77333 37.5417 4.12667 37.8417 4.58C38.1417 5.02667 38.2917 5.55 38.2917 6.15C38.2917 6.75 38.1417 7.27667 37.8417 7.73C37.5417 8.17667 37.1184 8.52667 36.5717 8.78C36.0317 9.03333 35.4017 9.16 34.6817 9.16ZM34.6817 7.76C35.0484 7.76 35.3584 7.69667 35.6117 7.57C35.8717 7.43667 36.0684 7.25 36.2017 7.01C36.3417 6.77 36.4117 6.48333 36.4117 6.15C36.4117 5.81667 36.3417 5.53 36.2017 5.29C36.0684 5.05 35.8717 4.86667 35.6117 4.74C35.3584 4.60667 35.0484 4.54 34.6817 4.54C34.3284 4.54 34.0217 4.60667 33.7617 4.74C33.5017 4.86667 33.3017 5.05 33.1617 5.29C33.0217 5.53 32.9517 5.81667 32.9517 6.15C32.9517 6.48333 33.0217 6.77 33.1617 7.01C33.3017 7.25 33.5017 7.43667 33.7617 7.57C34.0217 7.69667 34.3284 7.76 34.6817 7.76ZM41.0633 7.49L40.5533 7.32L43.8233 3.3H45.8133L40.8833 9H39.2133V1.3H41.0633V7.49ZM42.2033 6.21L43.5833 5.2L45.9633 9H43.8533L42.2033 6.21ZM49.4266 9.16C48.7466 9.16 48.1366 9.03333 47.5966 8.78C47.0633 8.52667 46.6433 8.17333 46.3366 7.72C46.03 7.26667 45.8766 6.73667 45.8766 6.13C45.8766 5.53667 46.0233 5.01667 46.3166 4.57C46.61 4.12333 47.0133 3.77333 47.5266 3.52C48.0466 3.26667 48.6333 3.14 49.2866 3.14C49.9533 3.14 50.5266 3.28667 51.0066 3.58C51.4866 3.87333 51.8566 4.28667 52.1166 4.82C52.3766 5.35333 52.5066 5.98 52.5066 6.7H47.3666V5.53H51.4866L50.8166 5.95C50.7966 5.63667 50.72 5.37333 50.5866 5.16C50.46 4.94 50.29 4.77333 50.0766 4.66C49.8633 4.54 49.61 4.48 49.3166 4.48C48.9966 4.48 48.72 4.54333 48.4866 4.67C48.2533 4.79667 48.07 4.97333 47.9366 5.2C47.81 5.42667 47.7466 5.69 47.7466 5.99C47.7466 6.37 47.83 6.69333 47.9966 6.96C48.17 7.22667 48.4166 7.43 48.7366 7.57C49.0633 7.71 49.46 7.78 49.9266 7.78C50.3533 7.78 50.78 7.72333 51.2066 7.61C51.6333 7.49 52.0166 7.32333 52.3566 7.11V8.32C51.97 8.58667 51.5266 8.79333 51.0266 8.94C50.5333 9.08667 50 9.16 49.4266 9.16ZM61.1616 9L60.9116 6.85L61.2516 6.17L60.9216 5.31L61.3816 1.3H63.3116L62.7416 6.01L63.0816 9H61.1616ZM61.5916 6.15C61.4916 6.75667 61.3016 7.28667 61.0216 7.74C60.7416 8.18667 60.3882 8.53667 59.9616 8.79C59.5349 9.03667 59.0549 9.16 58.5216 9.16C57.9616 9.16 57.4682 9.03333 57.0416 8.78C56.6216 8.52667 56.2916 8.17667 56.0516 7.73C55.8116 7.27667 55.6916 6.75 55.6916 6.15C55.6916 5.55 55.8116 5.02667 56.0516 4.58C56.2916 4.12667 56.6216 3.77333 57.0416 3.52C57.4682 3.26667 57.9616 3.14 58.5216 3.14C59.0549 3.14 59.5349 3.26667 59.9616 3.52C60.3882 3.76667 60.7416 4.11333 61.0216 4.56C61.3082 5.00667 61.4982 5.53667 61.5916 6.15ZM57.5716 6.15C57.5716 6.45667 57.6349 6.73 57.7616 6.97C57.8882 7.20333 58.0616 7.39 58.2816 7.53C58.5082 7.66333 58.7682 7.73 59.0616 7.73C59.3549 7.73 59.6316 7.66333 59.8916 7.53C60.1582 7.39 60.3916 7.20333 60.5916 6.97C60.7916 6.73 60.9416 6.45667 61.0416 6.15C60.9416 5.84333 60.7916 5.57333 60.5916 5.34C60.3916 5.1 60.1582 4.91333 59.8916 4.78C59.6316 4.64 59.3549 4.57 59.0616 4.57C58.7682 4.57 58.5082 4.64 58.2816 4.78C58.0616 4.91333 57.8882 5.1 57.7616 5.34C57.6349 5.57333 57.5716 5.84333 57.5716 6.15ZM67.3759 9.16C66.6959 9.16 66.0859 9.03333 65.5459 8.78C65.0125 8.52667 64.5925 8.17333 64.2859 7.72C63.9792 7.26667 63.8259 6.73667 63.8259 6.13C63.8259 5.53667 63.9725 5.01667 64.2659 4.57C64.5592 4.12333 64.9625 3.77333 65.4759 3.52C65.9959 3.26667 66.5825 3.14 67.2359 3.14C67.9025 3.14 68.4759 3.28667 68.9559 3.58C69.4359 3.87333 69.8059 4.28667 70.0659 4.82C70.3259 5.35333 70.4559 5.98 70.4559 6.7H65.3159V5.53H69.4359L68.7659 5.95C68.7459 5.63667 68.6692 5.37333 68.5359 5.16C68.4092 4.94 68.2392 4.77333 68.0259 4.66C67.8125 4.54 67.5592 4.48 67.2659 4.48C66.9459 4.48 66.6692 4.54333 66.4359 4.67C66.2025 4.79667 66.0192 4.97333 65.8859 5.2C65.7592 5.42667 65.6959 5.69 65.6959 5.99C65.6959 6.37 65.7792 6.69333 65.9459 6.96C66.1192 7.22667 66.3659 7.43 66.6859 7.57C67.0125 7.71 67.4092 7.78 67.8759 7.78C68.3025 7.78 68.7292 7.72333 69.1559 7.61C69.5825 7.49 69.9659 7.32333 70.3059 7.11V8.32C69.9192 8.58667 69.4759 8.79333 68.9759 8.94C68.4825 9.08667 67.9492 9.16 67.3759 9.16ZM77.8013 7.17C77.8013 7.59667 77.6746 7.96 77.4213 8.26C77.1746 8.55333 76.8113 8.77667 76.3313 8.93C75.8513 9.08333 75.2679 9.16 74.5813 9.16C73.8813 9.16 73.2679 9.07333 72.7413 8.9C72.2146 8.72667 71.8046 8.48333 71.5113 8.17C71.2179 7.85667 71.0613 7.49333 71.0413 7.08H72.9313C72.9713 7.24667 73.0646 7.39333 73.2113 7.52C73.3646 7.64667 73.5613 7.74333 73.8013 7.81C74.0413 7.87 74.3246 7.9 74.6513 7.9C75.0913 7.9 75.4246 7.85333 75.6513 7.76C75.8779 7.66667 75.9913 7.52667 75.9913 7.34C75.9913 7.2 75.9079 7.09333 75.7413 7.02C75.5813 6.94667 75.2913 6.89333 74.8713 6.86L73.8313 6.78C73.1779 6.73333 72.6579 6.63 72.2713 6.47C71.8846 6.31 71.6079 6.10667 71.4412 5.86C71.2813 5.61333 71.2013 5.33667 71.2013 5.03C71.2013 4.61 71.3313 4.26 71.5913 3.98C71.8579 3.7 72.2246 3.49 72.6913 3.35C73.1579 3.21 73.7046 3.14 74.3313 3.14C74.9579 3.14 75.5146 3.22333 76.0013 3.39C76.4946 3.55667 76.8879 3.78667 77.1813 4.08C77.4813 4.37333 77.6513 4.71667 77.6913 5.11H75.8013C75.7746 4.97667 75.7013 4.85333 75.5813 4.74C75.4679 4.62667 75.3013 4.53667 75.0813 4.47C74.8679 4.39667 74.5879 4.36 74.2413 4.36C73.8479 4.36 73.5479 4.40333 73.3413 4.49C73.1346 4.57667 73.0313 4.70333 73.0313 4.87C73.0313 4.99667 73.0946 5.09667 73.2213 5.17C73.3479 5.24333 73.5879 5.29667 73.9413 5.33L75.2913 5.43C75.9313 5.48333 76.4313 5.58667 76.7913 5.74C77.1579 5.88667 77.4179 6.08 77.5713 6.32C77.7246 6.56 77.8013 6.84333 77.8013 7.17ZM78.725 3.22L79.645 3.41L80.575 3.22V9H78.725V3.22ZM79.655 2.7C79.3283 2.7 79.0617 2.61667 78.855 2.45C78.6483 2.27667 78.545 2.05 78.545 1.77C78.545 1.48333 78.6483 1.25667 78.855 1.09C79.0617 0.923333 79.3283 0.84 79.655 0.84C79.9883 0.84 80.255 0.923333 80.455 1.09C80.655 1.25667 80.755 1.48333 80.755 1.77C80.755 2.05 80.655 2.27667 80.455 2.45C80.255 2.61667 79.9883 2.7 79.655 2.7ZM86.7919 7.57V6.6L86.8519 6.37V5.05L86.7919 4.84V3.3H88.6519V7.48C88.6519 8.18667 88.4885 8.78667 88.1619 9.28C87.8419 9.78 87.3952 10.16 86.8219 10.42C86.2485 10.68 85.5819 10.81 84.8219 10.81C84.2952 10.81 83.8085 10.74 83.3619 10.6C82.9219 10.4667 82.4852 10.2633 82.0519 9.99V8.57C82.4585 8.87667 82.8852 9.09667 83.3319 9.23C83.7852 9.37 84.2419 9.44 84.7019 9.44C85.3752 9.44 85.8919 9.29 86.2519 8.99C86.6119 8.68333 86.7919 8.21 86.7919 7.57ZM84.2719 8.44C83.7385 8.44 83.2619 8.33 82.8419 8.11C82.4219 7.89 82.0919 7.58333 81.8519 7.19C81.6119 6.79 81.4919 6.32333 81.4919 5.79C81.4919 5.25667 81.6119 4.79333 81.8519 4.4C82.0919 4 82.4219 3.69 82.8419 3.47C83.2619 3.25 83.7385 3.14 84.2719 3.14C84.6719 3.14 85.0385 3.20333 85.3719 3.33C85.7052 3.45 86.0019 3.61 86.2619 3.81C86.5219 4.01 86.7419 4.23 86.9219 4.47C87.1019 4.70333 87.2385 4.94 87.3319 5.18C87.4252 5.41333 87.4719 5.62333 87.4719 5.81C87.4719 6.05667 87.3985 6.33333 87.2519 6.64C87.1052 6.94 86.8919 7.22667 86.6119 7.5C86.3385 7.77333 86.0052 8 85.6119 8.18C85.2185 8.35333 84.7719 8.44 84.2719 8.44ZM84.8919 7.15C85.3052 7.15 85.6752 7.04 86.0019 6.82C86.3285 6.6 86.6119 6.25667 86.8519 5.79C86.6119 5.31667 86.3252 4.97 85.9919 4.75C85.6652 4.53 85.2985 4.42 84.8919 4.42C84.5785 4.42 84.3052 4.47667 84.0719 4.59C83.8452 4.70333 83.6685 4.86333 83.5419 5.07C83.4219 5.27 83.3619 5.51 83.3619 5.79C83.3619 6.06333 83.4219 6.30333 83.5419 6.51C83.6619 6.71 83.8352 6.86667 84.0619 6.98C84.2952 7.09333 84.5719 7.15 84.8919 7.15ZM89.5487 3.3H91.3988L91.7688 5.52V9H89.9088V5.24L89.5487 3.3ZM93.8988 3.14C94.4454 3.14 94.9088 3.25 95.2888 3.47C95.6754 3.68333 95.9688 3.99 96.1688 4.39C96.3754 4.79 96.4788 5.26667 96.4788 5.82V9H94.6188V6.1C94.6188 5.62667 94.5021 5.27 94.2687 5.03C94.0354 4.78333 93.7021 4.66 93.2688 4.66C92.9621 4.66 92.6954 4.72667 92.4688 4.86C92.2488 4.98667 92.0754 5.17 91.9488 5.41C91.8288 5.64333 91.7688 5.92333 91.7688 6.25L91.1788 5.94C91.2521 5.33333 91.4154 4.82333 91.6688 4.41C91.9288 3.99667 92.2488 3.68333 92.6288 3.47C93.0154 3.25 93.4388 3.14 93.8988 3.14ZM105.301 9L105.051 6.93L105.321 6.15L105.051 5.38L105.301 3.3H107.231L106.881 6.15L107.231 9H105.301ZM105.761 6.15C105.661 6.75667 105.471 7.28667 105.191 7.74C104.911 8.18667 104.558 8.53667 104.131 8.79C103.705 9.03667 103.225 9.16 102.691 9.16C102.131 9.16 101.638 9.03333 101.211 8.78C100.791 8.52667 100.461 8.17667 100.221 7.73C99.9815 7.27667 99.8615 6.75 99.8615 6.15C99.8615 5.55 99.9815 5.02667 100.221 4.58C100.461 4.12667 100.791 3.77333 101.211 3.52C101.638 3.26667 102.131 3.14 102.691 3.14C103.225 3.14 103.705 3.26667 104.131 3.52C104.558 3.76667 104.911 4.11333 105.191 4.56C105.478 5.00667 105.668 5.53667 105.761 6.15ZM101.741 6.15C101.741 6.45667 101.805 6.73 101.931 6.97C102.058 7.20333 102.231 7.39 102.451 7.53C102.678 7.66333 102.938 7.73 103.231 7.73C103.525 7.73 103.801 7.66333 104.061 7.53C104.328 7.39 104.561 7.20333 104.761 6.97C104.961 6.73 105.111 6.45667 105.211 6.15C105.111 5.84333 104.961 5.57333 104.761 5.34C104.561 5.1 104.328 4.91333 104.061 4.78C103.801 4.64 103.525 4.57 103.231 4.57C102.938 4.57 102.678 4.64 102.451 4.78C102.231 4.91333 102.058 5.1 101.931 5.34C101.805 5.57333 101.741 5.84333 101.741 6.15ZM108.016 3.3H109.866L110.236 5.52V9H108.376V5.24L108.016 3.3ZM112.366 3.14C112.912 3.14 113.376 3.25 113.756 3.47C114.142 3.68333 114.436 3.99 114.636 4.39C114.842 4.79 114.946 5.26667 114.946 5.82V9H113.086V6.1C113.086 5.62667 112.969 5.27 112.736 5.03C112.502 4.78333 112.169 4.66 111.736 4.66C111.429 4.66 111.162 4.72667 110.936 4.86C110.716 4.98667 110.542 5.17 110.416 5.41C110.296 5.64333 110.236 5.92333 110.236 6.25L109.646 5.94C109.719 5.33333 109.882 4.82333 110.136 4.41C110.396 3.99667 110.716 3.68333 111.096 3.47C111.482 3.25 111.906 3.14 112.366 3.14ZM121.279 9L121.029 6.85L121.369 6.17L121.039 5.31L121.499 1.3H123.429L122.859 6.01L123.199 9H121.279ZM121.709 6.15C121.609 6.75667 121.419 7.28667 121.139 7.74C120.859 8.18667 120.505 8.53667 120.079 8.79C119.652 9.03667 119.172 9.16 118.639 9.16C118.079 9.16 117.585 9.03333 117.159 8.78C116.739 8.52667 116.409 8.17667 116.169 7.73C115.929 7.27667 115.809 6.75 115.809 6.15C115.809 5.55 115.929 5.02667 116.169 4.58C116.409 4.12667 116.739 3.77333 117.159 3.52C117.585 3.26667 118.079 3.14 118.639 3.14C119.172 3.14 119.652 3.26667 120.079 3.52C120.505 3.76667 120.859 4.11333 121.139 4.56C121.425 5.00667 121.615 5.53667 121.709 6.15ZM117.689 6.15C117.689 6.45667 117.752 6.73 117.879 6.97C118.005 7.20333 118.179 7.39 118.399 7.53C118.625 7.66333 118.885 7.73 119.179 7.73C119.472 7.73 119.749 7.66333 120.009 7.53C120.275 7.39 120.509 7.20333 120.709 6.97C120.909 6.73 121.059 6.45667 121.159 6.15C121.059 5.84333 120.909 5.57333 120.709 5.34C120.509 5.1 120.275 4.91333 120.009 4.78C119.749 4.64 119.472 4.57 119.179 4.57C118.885 4.57 118.625 4.64 118.399 4.78C118.179 4.91333 118.005 5.1 117.879 5.34C117.752 5.57333 117.689 5.84333 117.689 6.15ZM0.33 15.3H2.18L2.55 17.52V21H0.69V17.24L0.33 15.3ZM4.55 15.14C5.07 15.14 5.51 15.25 5.87 15.47C6.23667 15.6833 6.51333 15.99 6.7 16.39C6.89333 16.79 6.99 17.2667 6.99 17.82V21H5.13V18.1C5.13 17.6267 5.02667 17.27 4.82 17.03C4.61333 16.7833 4.31 16.66 3.91 16.66C3.63 16.66 3.38667 16.7267 3.18 16.86C2.98 16.9867 2.82333 17.17 2.71 17.41C2.60333 17.6433 2.55 17.9233 2.55 18.25L1.96 17.94C2.03333 17.3333 2.19 16.8233 2.43 16.41C2.67667 15.9967 2.98 15.6833 3.34 15.47C3.70667 15.25 4.11 15.14 4.55 15.14ZM8.98 15.14C9.5 15.14 9.94333 15.25 10.31 15.47C10.6767 15.6833 10.9533 15.99 11.14 16.39C11.3333 16.79 11.43 17.2667 11.43 17.82V21H9.57V18.1C9.57 17.6267 9.46667 17.27 9.26 17.03C9.05333 16.7833 8.75 16.66 8.35 16.66C8.07 16.66 7.82667 16.7267 7.62 16.86C7.42 16.9867 7.26333 17.17 7.15 17.41C7.04333 17.6433 6.99 17.9233 6.99 18.25L6.4 17.94C6.47333 17.3333 6.63 16.8233 6.87 16.41C7.11 15.9967 7.41333 15.6833 7.78 15.47C8.14667 15.25 8.54667 15.14 8.98 15.14ZM17.7331 21L17.4831 18.93L17.7531 18.15L17.4831 17.38L17.7331 15.3H19.6631L19.3131 18.15L19.6631 21H17.7331ZM18.1931 18.15C18.0931 18.7567 17.9031 19.2867 17.6231 19.74C17.3431 20.1867 16.9898 20.5367 16.5631 20.79C16.1365 21.0367 15.6565 21.16 15.1231 21.16C14.5631 21.16 14.0698 21.0333 13.6431 20.78C13.2231 20.5267 12.8931 20.1767 12.6531 19.73C12.4131 19.2767 12.2931 18.75 12.2931 18.15C12.2931 17.55 12.4131 17.0267 12.6531 16.58C12.8931 16.1267 13.2231 15.7733 13.6431 15.52C14.0698 15.2667 14.5631 15.14 15.1231 15.14C15.6565 15.14 16.1365 15.2667 16.5631 15.52C16.9898 15.7667 17.3431 16.1133 17.6231 16.56C17.9098 17.0067 18.0998 17.5367 18.1931 18.15ZM14.1731 18.15C14.1731 18.4567 14.2365 18.73 14.3631 18.97C14.4898 19.2033 14.6631 19.39 14.8831 19.53C15.1098 19.6633 15.3698 19.73 15.6631 19.73C15.9565 19.73 16.2331 19.6633 16.4931 19.53C16.7598 19.39 16.9931 19.2033 17.1931 18.97C17.3931 18.73 17.5431 18.4567 17.6431 18.15C17.5431 17.8433 17.3931 17.5733 17.1931 17.34C16.9931 17.1 16.7598 16.9133 16.4931 16.78C16.2331 16.64 15.9565 16.57 15.6631 16.57C15.3698 16.57 15.1098 16.64 14.8831 16.78C14.6631 16.9133 14.4898 17.1 14.3631 17.34C14.2365 17.5733 14.1731 17.8433 14.1731 18.15ZM20.4472 15.3H22.3272L22.6672 17.35V21H20.8072V17.2L20.4472 15.3ZM25.3872 15.22V16.82C25.2072 16.78 25.0272 16.75 24.8472 16.73C24.6739 16.71 24.5139 16.7 24.3672 16.7C24.0472 16.7 23.7572 16.7667 23.4972 16.9C23.2439 17.0267 23.0405 17.23 22.8872 17.51C22.7405 17.79 22.6672 18.1533 22.6672 18.6L22.2972 18.14C22.3439 17.7333 22.4205 17.35 22.5272 16.99C22.6339 16.63 22.7805 16.3133 22.9672 16.04C23.1539 15.76 23.3839 15.54 23.6572 15.38C23.9372 15.22 24.2739 15.14 24.6672 15.14C24.7805 15.14 24.9005 15.1467 25.0272 15.16C25.1539 15.1733 25.2739 15.1933 25.3872 15.22ZM27.9871 19.49L27.4771 19.32L30.7471 15.3H32.7371L27.8071 21H26.1371V13.3H27.9871V19.49ZM29.1271 18.21L30.5071 17.2L32.8871 21H30.7771L29.1271 18.21ZM36.3505 21.16C35.6705 21.16 35.0605 21.0333 34.5205 20.78C33.9871 20.5267 33.5671 20.1733 33.2605 19.72C32.9538 19.2667 32.8005 18.7367 32.8005 18.13C32.8005 17.5367 32.9471 17.0167 33.2405 16.57C33.5338 16.1233 33.9371 15.7733 34.4505 15.52C34.9705 15.2667 35.5571 15.14 36.2105 15.14C36.8771 15.14 37.4505 15.2867 37.9305 15.58C38.4105 15.8733 38.7805 16.2867 39.0405 16.82C39.3005 17.3533 39.4305 17.98 39.4305 18.7H34.2905V17.53H38.4105L37.7405 17.95C37.7205 17.6367 37.6438 17.3733 37.5105 17.16C37.3838 16.94 37.2138 16.7733 37.0005 16.66C36.7871 16.54 36.5338 16.48 36.2405 16.48C35.9205 16.48 35.6438 16.5433 35.4105 16.67C35.1771 16.7967 34.9938 16.9733 34.8605 17.2C34.7338 17.4267 34.6705 17.69 34.6705 17.99C34.6705 18.37 34.7538 18.6933 34.9205 18.96C35.0938 19.2267 35.3405 19.43 35.6605 19.57C35.9871 19.71 36.3838 19.78 36.8505 19.78C37.2771 19.78 37.7038 19.7233 38.1305 19.61C38.5571 19.49 38.9405 19.3233 39.2805 19.11V20.32C38.8938 20.5867 38.4505 20.7933 37.9505 20.94C37.4571 21.0867 36.9238 21.16 36.3505 21.16ZM39.6887 16.68V15.87L40.8687 15.44L41.6687 13.78H42.7287V15.3H45.1887V16.68H42.7287V18.56C42.7287 18.9867 42.8153 19.2867 42.9887 19.46C43.162 19.6267 43.472 19.71 43.9187 19.71C44.2053 19.71 44.4553 19.6867 44.6687 19.64C44.8887 19.5867 45.0953 19.5167 45.2887 19.43V20.84C45.0887 20.92 44.8253 20.9933 44.4987 21.06C44.1787 21.1267 43.8453 21.16 43.4987 21.16C42.892 21.16 42.392 21.0633 41.9987 20.87C41.612 20.6767 41.3253 20.4067 41.1387 20.06C40.9587 19.7067 40.8687 19.2933 40.8687 18.82V16.68H39.6887ZM46.1469 15.22L47.0669 15.41L47.9969 15.22V21H46.1469V15.22ZM47.0769 14.7C46.7502 14.7 46.4835 14.6167 46.2769 14.45C46.0702 14.2767 45.9669 14.05 45.9669 13.77C45.9669 13.4833 46.0702 13.2567 46.2769 13.09C46.4835 12.9233 46.7502 12.84 47.0769 12.84C47.4102 12.84 47.6769 12.9233 47.8769 13.09C48.0769 13.2567 48.1769 13.4833 48.1769 13.77C48.1769 14.05 48.0769 14.2767 47.8769 14.45C47.6769 14.6167 47.4102 14.7 47.0769 14.7ZM48.9237 15.3H50.7738L51.1438 17.52V21H49.2838V17.24L48.9237 15.3ZM53.2738 15.14C53.8204 15.14 54.2838 15.25 54.6638 15.47C55.0504 15.6833 55.3438 15.99 55.5438 16.39C55.7504 16.79 55.8538 17.2667 55.8538 17.82V21H53.9938V18.1C53.9938 17.6267 53.8771 17.27 53.6437 17.03C53.4104 16.7833 53.0771 16.66 52.6438 16.66C52.3371 16.66 52.0704 16.7267 51.8438 16.86C51.6238 16.9867 51.4504 17.17 51.3238 17.41C51.2038 17.6433 51.1438 17.9233 51.1438 18.25L50.5538 17.94C50.6271 17.3333 50.7904 16.8233 51.0438 16.41C51.3038 15.9967 51.6238 15.6833 52.0038 15.47C52.3904 15.25 52.8138 15.14 53.2738 15.14ZM61.997 19.57V18.6L62.057 18.37V17.05L61.997 16.84V15.3H63.857V19.48C63.857 20.1867 63.6936 20.7867 63.367 21.28C63.047 21.78 62.6003 22.16 62.027 22.42C61.4536 22.68 60.787 22.81 60.027 22.81C59.5003 22.81 59.0136 22.74 58.567 22.6C58.127 22.4667 57.6903 22.2633 57.257 21.99V20.57C57.6636 20.8767 58.0903 21.0967 58.537 21.23C58.9903 21.37 59.447 21.44 59.907 21.44C60.5803 21.44 61.097 21.29 61.457 20.99C61.817 20.6833 61.997 20.21 61.997 19.57ZM59.477 20.44C58.9436 20.44 58.467 20.33 58.047 20.11C57.627 19.89 57.297 19.5833 57.057 19.19C56.817 18.79 56.697 18.3233 56.697 17.79C56.697 17.2567 56.817 16.7933 57.057 16.4C57.297 16 57.627 15.69 58.047 15.47C58.467 15.25 58.9436 15.14 59.477 15.14C59.877 15.14 60.2436 15.2033 60.577 15.33C60.9103 15.45 61.207 15.61 61.467 15.81C61.727 16.01 61.947 16.23 62.127 16.47C62.307 16.7033 62.4436 16.94 62.537 17.18C62.6303 17.4133 62.677 17.6233 62.677 17.81C62.677 18.0567 62.6036 18.3333 62.457 18.64C62.3103 18.94 62.097 19.2267 61.817 19.5C61.5436 19.7733 61.2103 20 60.817 20.18C60.4236 20.3533 59.977 20.44 59.477 20.44ZM60.097 19.15C60.5103 19.15 60.8803 19.04 61.207 18.82C61.5336 18.6 61.817 18.2567 62.057 17.79C61.817 17.3167 61.5303 16.97 61.197 16.75C60.8703 16.53 60.5036 16.42 60.097 16.42C59.7836 16.42 59.5103 16.4767 59.277 16.59C59.0503 16.7033 58.8736 16.8633 58.747 17.07C58.627 17.27 58.567 17.51 58.567 17.79C58.567 18.0633 58.627 18.3033 58.747 18.51C58.867 18.71 59.0403 18.8667 59.267 18.98C59.5003 19.0933 59.777 19.15 60.097 19.15ZM73.9634 19.17C73.9634 19.5967 73.8367 19.96 73.5834 20.26C73.3367 20.5533 72.9734 20.7767 72.4934 20.93C72.0134 21.0833 71.43 21.16 70.7434 21.16C70.0434 21.16 69.43 21.0733 68.9034 20.9C68.3767 20.7267 67.9667 20.4833 67.6734 20.17C67.38 19.8567 67.2234 19.4933 67.2034 19.08H69.0934C69.1334 19.2467 69.2267 19.3933 69.3734 19.52C69.5267 19.6467 69.7234 19.7433 69.9634 19.81C70.2034 19.87 70.4867 19.9 70.8134 19.9C71.2534 19.9 71.5867 19.8533 71.8134 19.76C72.04 19.6667 72.1534 19.5267 72.1534 19.34C72.1534 19.2 72.07 19.0933 71.9034 19.02C71.7434 18.9467 71.4534 18.8933 71.0334 18.86L69.9934 18.78C69.34 18.7333 68.82 18.63 68.4334 18.47C68.0467 18.31 67.77 18.1067 67.6034 17.86C67.4434 17.6133 67.3634 17.3367 67.3634 17.03C67.3634 16.61 67.4934 16.26 67.7534 15.98C68.02 15.7 68.3867 15.49 68.8534 15.35C69.32 15.21 69.8667 15.14 70.4934 15.14C71.12 15.14 71.6767 15.2233 72.1634 15.39C72.6567 15.5567 73.05 15.7867 73.3434 16.08C73.6434 16.3733 73.8134 16.7167 73.8534 17.11H71.9634C71.9367 16.9767 71.8634 16.8533 71.7434 16.74C71.63 16.6267 71.4634 16.5367 71.2434 16.47C71.03 16.3967 70.75 16.36 70.4034 16.36C70.01 16.36 69.71 16.4033 69.5034 16.49C69.2967 16.5767 69.1934 16.7033 69.1934 16.87C69.1934 16.9967 69.2567 17.0967 69.3834 17.17C69.51 17.2433 69.75 17.2967 70.1034 17.33L71.4534 17.43C72.0934 17.4833 72.5934 17.5867 72.9534 17.74C73.32 17.8867 73.58 18.08 73.7334 18.32C73.8867 18.56 73.9634 18.8433 73.9634 19.17ZM78.1571 21.16C77.4771 21.16 76.8671 21.0333 76.3271 20.78C75.7938 20.5267 75.3738 20.1733 75.0671 19.72C74.7604 19.2667 74.6071 18.7367 74.6071 18.13C74.6071 17.5367 74.7538 17.0167 75.0471 16.57C75.3404 16.1233 75.7438 15.7733 76.2571 15.52C76.7771 15.2667 77.3638 15.14 78.0171 15.14C78.6838 15.14 79.2571 15.2867 79.7371 15.58C80.2171 15.8733 80.5871 16.2867 80.8471 16.82C81.1071 17.3533 81.2371 17.98 81.2371 18.7H76.0971V17.53H80.2171L79.5471 17.95C79.5271 17.6367 79.4504 17.3733 79.3171 17.16C79.1904 16.94 79.0204 16.7733 78.8071 16.66C78.5938 16.54 78.3404 16.48 78.0471 16.48C77.7271 16.48 77.4504 16.5433 77.2171 16.67C76.9838 16.7967 76.8004 16.9733 76.6671 17.2C76.5404 17.4267 76.4771 17.69 76.4771 17.99C76.4771 18.37 76.5604 18.6933 76.7271 18.96C76.9004 19.2267 77.1471 19.43 77.4671 19.57C77.7938 19.71 78.1904 19.78 78.6571 19.78C79.0838 19.78 79.5104 19.7233 79.9371 19.61C80.3638 19.49 80.7471 19.3233 81.0871 19.11V20.32C80.7004 20.5867 80.2571 20.7933 79.7571 20.94C79.2638 21.0867 78.7304 21.16 78.1571 21.16ZM81.873 15.3H83.753L84.093 17.35V21H82.233V17.2L81.873 15.3ZM86.813 15.22V16.82C86.633 16.78 86.453 16.75 86.273 16.73C86.0996 16.71 85.9396 16.7 85.793 16.7C85.473 16.7 85.183 16.7667 84.923 16.9C84.6696 17.0267 84.4663 17.23 84.313 17.51C84.1663 17.79 84.093 18.1533 84.093 18.6L83.723 18.14C83.7696 17.7333 83.8463 17.35 83.953 16.99C84.0596 16.63 84.2063 16.3133 84.393 16.04C84.5796 15.76 84.8096 15.54 85.083 15.38C85.363 15.22 85.6996 15.14 86.093 15.14C86.2063 15.14 86.3263 15.1467 86.453 15.16C86.5796 15.1733 86.6996 15.1933 86.813 15.22ZM91.0929 20.13L90.4429 20.12L92.5029 15.3H94.4829L91.7929 21H89.6829L86.9929 15.3H89.0429L91.0929 20.13ZM95.1117 15.22L96.0317 15.41L96.9617 15.22V21H95.1117V15.22ZM96.0417 14.7C95.7151 14.7 95.4484 14.6167 95.2417 14.45C95.0351 14.2767 94.9317 14.05 94.9317 13.77C94.9317 13.4833 95.0351 13.2567 95.2417 13.09C95.4484 12.9233 95.7151 12.84 96.0417 12.84C96.3751 12.84 96.6417 12.9233 96.8417 13.09C97.0417 13.2567 97.1417 13.4833 97.1417 13.77C97.1417 14.05 97.0417 14.2767 96.8417 14.45C96.6417 14.6167 96.3751 14.7 96.0417 14.7ZM104.819 18.63C104.765 19.13 104.579 19.57 104.259 19.95C103.945 20.33 103.539 20.6267 103.039 20.84C102.545 21.0533 101.989 21.16 101.369 21.16C100.682 21.16 100.075 21.0333 99.5486 20.78C99.0219 20.5267 98.6119 20.1733 98.3186 19.72C98.0253 19.2667 97.8786 18.7433 97.8786 18.15C97.8786 17.5567 98.0253 17.0333 98.3186 16.58C98.6119 16.1267 99.0219 15.7733 99.5486 15.52C100.075 15.2667 100.682 15.14 101.369 15.14C101.989 15.14 102.545 15.2467 103.039 15.46C103.539 15.6733 103.945 15.97 104.259 16.35C104.579 16.7233 104.765 17.1633 104.819 17.67H102.969C102.895 17.3033 102.712 17.0233 102.419 16.83C102.132 16.6367 101.782 16.54 101.369 16.54C101.042 16.54 100.755 16.6033 100.509 16.73C100.269 16.8567 100.082 17.04 99.9486 17.28C99.8153 17.52 99.7486 17.81 99.7486 18.15C99.7486 18.49 99.8153 18.78 99.9486 19.02C100.082 19.26 100.269 19.4433 100.509 19.57C100.755 19.6967 101.042 19.76 101.369 19.76C101.789 19.76 102.142 19.66 102.429 19.46C102.715 19.2533 102.895 18.9767 102.969 18.63H104.819ZM108.948 21.16C108.268 21.16 107.658 21.0333 107.118 20.78C106.585 20.5267 106.165 20.1733 105.858 19.72C105.551 19.2667 105.398 18.7367 105.398 18.13C105.398 17.5367 105.545 17.0167 105.838 16.57C106.131 16.1233 106.535 15.7733 107.048 15.52C107.568 15.2667 108.155 15.14 108.808 15.14C109.475 15.14 110.048 15.2867 110.528 15.58C111.008 15.8733 111.378 16.2867 111.638 16.82C111.898 17.3533 112.028 17.98 112.028 18.7H106.888V17.53H111.008L110.338 17.95C110.318 17.6367 110.241 17.3733 110.108 17.16C109.981 16.94 109.811 16.7733 109.598 16.66C109.385 16.54 109.131 16.48 108.838 16.48C108.518 16.48 108.241 16.5433 108.008 16.67C107.775 16.7967 107.591 16.9733 107.458 17.2C107.331 17.4267 107.268 17.69 107.268 17.99C107.268 18.37 107.351 18.6933 107.518 18.96C107.691 19.2267 107.938 19.43 108.258 19.57C108.585 19.71 108.981 19.78 109.448 19.78C109.875 19.78 110.301 19.7233 110.728 19.61C111.155 19.49 111.538 19.3233 111.878 19.11V20.32C111.491 20.5867 111.048 20.7933 110.548 20.94C110.055 21.0867 109.521 21.16 108.948 21.16ZM119.374 19.17C119.374 19.5967 119.247 19.96 118.994 20.26C118.747 20.5533 118.384 20.7767 117.904 20.93C117.424 21.0833 116.84 21.16 116.154 21.16C115.454 21.16 114.84 21.0733 114.314 20.9C113.787 20.7267 113.377 20.4833 113.084 20.17C112.79 19.8567 112.634 19.4933 112.614 19.08H114.504C114.544 19.2467 114.637 19.3933 114.784 19.52C114.937 19.6467 115.134 19.7433 115.374 19.81C115.614 19.87 115.897 19.9 116.224 19.9C116.664 19.9 116.997 19.8533 117.224 19.76C117.45 19.6667 117.564 19.5267 117.564 19.34C117.564 19.2 117.48 19.0933 117.314 19.02C117.154 18.9467 116.864 18.8933 116.444 18.86L115.404 18.78C114.75 18.7333 114.23 18.63 113.844 18.47C113.457 18.31 113.18 18.1067 113.014 17.86C112.854 17.6133 112.774 17.3367 112.774 17.03C112.774 16.61 112.904 16.26 113.164 15.98C113.43 15.7 113.797 15.49 114.264 15.35C114.73 15.21 115.277 15.14 115.904 15.14C116.53 15.14 117.087 15.2233 117.574 15.39C118.067 15.5567 118.46 15.7867 118.754 16.08C119.054 16.3733 119.224 16.7167 119.264 17.11H117.374C117.347 16.9767 117.274 16.8533 117.154 16.74C117.04 16.6267 116.874 16.5367 116.654 16.47C116.44 16.3967 116.16 16.36 115.814 16.36C115.42 16.36 115.12 16.4033 114.914 16.49C114.707 16.5767 114.604 16.7033 114.604 16.87C114.604 16.9967 114.667 17.0967 114.794 17.17C114.92 17.2433 115.16 17.2967 115.514 17.33L116.864 17.43C117.504 17.4833 118.004 17.5867 118.364 17.74C118.73 17.8867 118.99 18.08 119.144 18.32C119.297 18.56 119.374 18.8433 119.374 19.17Z" fill="white"/>
</svg>
